<svg xmlns="http://www.w3.org/2000/svg" width="1900" height="1500" viewBox="0 0 1900 1500">
<defs>
<style>

    .title { font: 700 14px "Pretendard", "Noto Sans KR", sans-serif; fill: #1f2937; }
    .head { font: 700 15px "Pretendard", "Noto Sans KR", sans-serif; fill: #ffffff; }
    .field { font: 500 12px "Pretendard", "Noto Sans KR", sans-serif; fill: #1f2937; }
    .note { font: 500 11px "Pretendard", "Noto Sans KR", sans-serif; fill: #374151; }

</style>
<marker id="arrow" markerWidth="10" markerHeight="10" refX="9" refY="3" orient="auto" markerUnits="strokeWidth">
<path d="M0,0 L10,3 L0,6 z" fill="#64748b" />
</marker>
</defs>
<rect x="0" y="0" width="100%" height="100%" fill="#f8fafc"/>
<text x="60" y="46" class="title" style="font-size:24px;">WHYME 플랫폼 ERD (현재 스키마)</text>
<text x="60" y="72" class="note">기준: prisma/schema.prisma | FK 관계 중심</text>
<path d="M 290.0 286 L 290.0 338.0 L 530.0 338.0 L 530.0 390" fill="none" stroke="#64748b" stroke-width="2" marker-end="url(#arrow)"/>
<text x="414.0" y="332.0" class="note">slot_id</text>
<path d="M 810.0 286 L 810.0 338.0 L 530.0 338.0 L 530.0 390" fill="none" stroke="#64748b" stroke-width="2" marker-end="url(#arrow)"/>
<text x="674.0" y="332.0" class="note">leader_parent_id</text>
<path d="M 320 507.0 L 320 633.5 L 270.0 633.5 L 270.0 760" fill="none" stroke="#64748b" stroke-width="2" marker-end="url(#arrow)"/>
<text x="299.0" y="627.5" class="note">group_id</text>
<path d="M 530.0 624 L 530.0 692.0 L 710.0 692.0 L 710.0 760" fill="none" stroke="#64748b" stroke-width="2" marker-end="url(#arrow)"/>
<text x="624.0" y="686.0" class="note">group_id</text>
<path d="M 980 853.0 L 980 865.0 L 920 865.0 L 920 877.0" fill="none" stroke="#64748b" stroke-width="2" marker-end="url(#arrow)"/>
<text x="954.0" y="859.0" class="note">child_id</text>
<path d="M 530.0 624 L 530.0 852.0 L 530.0 852.0 L 530.0 1080" fill="none" stroke="#64748b" stroke-width="2" marker-end="url(#arrow)"/>
<text x="534.0" y="846.0" class="note">group_id</text>
<path d="M 1530.0 494 L 1530.0 557.0 L 1530.0 557.0 L 1530.0 620" fill="none" stroke="#64748b" stroke-width="2" marker-end="url(#arrow)"/>
<text x="1534.0" y="551.0" class="note">user_id</text>
<rect x="80" y="100" width="420" height="186" rx="10" ry="10" fill="#ffffff" stroke="#cbd5e1" stroke-width="1.6"/>
<rect x="80" y="100" width="420" height="42" rx="10" ry="10" fill="#1d4ed8"/>
<rect x="80" y="132" width="420" height="10" fill="#1d4ed8"/>
<text x="92" y="127" class="head">reservation_slot</text>
<text x="92" y="162" class="field">• PK slot_id (uuid)</text>
<text x="92" y="186" class="field">• start_at (timestamptz)</text>
<text x="92" y="210" class="field">• end_at (timestamptz)</text>
<text x="92" y="234" class="field">• instructor_id (string)</text>
<text x="92" y="258" class="field">• status (slot_status)</text>
<rect x="600" y="100" width="420" height="186" rx="10" ry="10" fill="#ffffff" stroke="#cbd5e1" stroke-width="1.6"/>
<rect x="600" y="100" width="420" height="42" rx="10" ry="10" fill="#1d4ed8"/>
<rect x="600" y="132" width="420" height="10" fill="#1d4ed8"/>
<text x="612" y="127" class="head">parent</text>
<text x="612" y="162" class="field">• PK parent_id (uuid)</text>
<text x="612" y="186" class="field">• name</text>
<text x="612" y="210" class="field">• UK phone</text>
<text x="612" y="234" class="field">• kakao_id</text>
<text x="612" y="258" class="field">• cash_receipt_number</text>
<rect x="320" y="390" width="420" height="234" rx="10" ry="10" fill="#ffffff" stroke="#cbd5e1" stroke-width="1.6"/>
<rect x="320" y="390" width="420" height="42" rx="10" ry="10" fill="#1d4ed8"/>
<rect x="320" y="422" width="420" height="10" fill="#1d4ed8"/>
<text x="332" y="417" class="head">group_pass</text>
<text x="332" y="452" class="field">• PK group_id (uuid)</text>
<text x="332" y="476" class="field">• FK slot_id -> reservation_slot</text>
<text x="332" y="500" class="field">• FK leader_parent_id -> parent</text>
<text x="332" y="524" class="field">• headcount_min/max</text>
<text x="332" y="548" class="field">• roster_status, status</text>
<text x="332" y="572" class="field">• memo_to_instructor</text>
<text x="332" y="596" class="field">• naver_reservation_id</text>
<rect x="60" y="760" width="420" height="186" rx="10" ry="10" fill="#ffffff" stroke="#cbd5e1" stroke-width="1.6"/>
<rect x="60" y="760" width="420" height="42" rx="10" ry="10" fill="#1d4ed8"/>
<rect x="60" y="792" width="420" height="10" fill="#1d4ed8"/>
<text x="72" y="787" class="head">invite_link</text>
<text x="72" y="822" class="field">• PK invite_id (uuid)</text>
<text x="72" y="846" class="field">• FK group_id -> group_pass</text>
<text x="72" y="870" class="field">• UK token</text>
<text x="72" y="894" class="field">• purpose</text>
<text x="72" y="918" class="field">• expires_at/max_uses/used_count</text>
<rect x="500" y="760" width="420" height="234" rx="10" ry="10" fill="#ffffff" stroke="#cbd5e1" stroke-width="1.6"/>
<rect x="500" y="760" width="420" height="42" rx="10" ry="10" fill="#1d4ed8"/>
<rect x="500" y="792" width="420" height="10" fill="#1d4ed8"/>
<text x="512" y="787" class="head">group_member</text>
<text x="512" y="822" class="field">• PK group_member_id (uuid)</text>
<text x="512" y="846" class="field">• FK group_id -> group_pass</text>
<text x="512" y="870" class="field">• FK child_id -> child</text>
<text x="512" y="894" class="field">• parent_name, parent_phone</text>
<text x="512" y="918" class="field">• note_to_instructor</text>
<text x="512" y="942" class="field">• UK edit_token</text>
<text x="512" y="966" class="field">• UQ (group_id, child_id)</text>
<rect x="980" y="760" width="420" height="186" rx="10" ry="10" fill="#ffffff" stroke="#cbd5e1" stroke-width="1.6"/>
<rect x="980" y="760" width="420" height="42" rx="10" ry="10" fill="#1d4ed8"/>
<rect x="980" y="792" width="420" height="10" fill="#1d4ed8"/>
<text x="992" y="787" class="head">child</text>
<text x="992" y="822" class="field">• PK child_id (uuid)</text>
<text x="992" y="846" class="field">• name, grade</text>
<text x="992" y="870" class="field">• prior_student_attended</text>
<text x="992" y="894" class="field">• siblings_prior_attended</text>
<text x="992" y="918" class="field">• parent_prior_attended</text>
<rect x="320" y="1080" width="420" height="186" rx="10" ry="10" fill="#ffffff" stroke="#cbd5e1" stroke-width="1.6"/>
<rect x="320" y="1080" width="420" height="42" rx="10" ry="10" fill="#1d4ed8"/>
<rect x="320" y="1112" width="420" height="10" fill="#1d4ed8"/>
<text x="332" y="1107" class="head">payment</text>
<text x="332" y="1142" class="field">• PK payment_id (uuid)</text>
<text x="332" y="1166" class="field">• FK group_id -> group_pass</text>
<text x="332" y="1190" class="field">• type, status</text>
<text x="332" y="1214" class="field">• amount (bigint)</text>
<text x="332" y="1238" class="field">• occurred_at, payer_name</text>
<rect x="1320" y="260" width="420" height="234" rx="10" ry="10" fill="#ffffff" stroke="#cbd5e1" stroke-width="1.6"/>
<rect x="1320" y="260" width="420" height="42" rx="10" ry="10" fill="#1d4ed8"/>
<rect x="1320" y="292" width="420" height="10" fill="#1d4ed8"/>
<text x="1332" y="287" class="head">internal_user</text>
<text x="1332" y="322" class="field">• PK user_id (uuid)</text>
<text x="1332" y="346" class="field">• role, status</text>
<text x="1332" y="370" class="field">• UK login_id</text>
<text x="1332" y="394" class="field">• password_hash</text>
<text x="1332" y="418" class="field">• instructor_code_hash</text>
<text x="1332" y="442" class="field">• name, phone, email</text>
<text x="1332" y="466" class="field">• last_login_at</text>
<rect x="1320" y="620" width="420" height="186" rx="10" ry="10" fill="#ffffff" stroke="#cbd5e1" stroke-width="1.6"/>
<rect x="1320" y="620" width="420" height="42" rx="10" ry="10" fill="#1d4ed8"/>
<rect x="1320" y="652" width="420" height="10" fill="#1d4ed8"/>
<text x="1332" y="647" class="head">internal_user_session</text>
<text x="1332" y="682" class="field">• PK session_id (uuid)</text>
<text x="1332" y="706" class="field">• FK user_id -> internal_user</text>
<text x="1332" y="730" class="field">• UK token_hash</text>
<text x="1332" y="754" class="field">• ip_address, user_agent</text>
<text x="1332" y="778" class="field">• expires_at, revoked_at</text>
<rect x="1320" y="980" width="420" height="162" rx="10" ry="10" fill="#ffffff" stroke="#cbd5e1" stroke-width="1.6"/>
<rect x="1320" y="980" width="420" height="42" rx="10" ry="10" fill="#1d4ed8"/>
<rect x="1320" y="1012" width="420" height="10" fill="#1d4ed8"/>
<text x="1332" y="1007" class="head">landing_instructor</text>
<text x="1332" y="1042" class="field">• PK instructor_id (uuid)</text>
<text x="1332" y="1066" class="field">• name, role, summary</text>
<text x="1332" y="1090" class="field">• description</text>
<text x="1332" y="1114" class="field">• sort_order, is_active</text>
<rect x="1320" y="1230" width="420" height="162" rx="10" ry="10" fill="#ffffff" stroke="#cbd5e1" stroke-width="1.6"/>
<rect x="1320" y="1230" width="420" height="42" rx="10" ry="10" fill="#1d4ed8"/>
<rect x="1320" y="1262" width="420" height="10" fill="#1d4ed8"/>
<text x="1332" y="1257" class="head">landing_program</text>
<text x="1332" y="1292" class="field">• PK program_id (uuid)</text>
<text x="1332" y="1316" class="field">• title, description</text>
<text x="1332" y="1340" class="field">• highlights, color</text>
<text x="1332" y="1364" class="field">• sort_order, is_active</text>
<rect x="60" y="1390" width="760" height="76" rx="8" fill="#ffffff" stroke="#cbd5e1"/>
<text x="74" y="1416" class="field">Legend: PK=Primary Key, FK=Foreign Key, UK=Unique Key, UQ=Composite Unique</text>
<text x="74" y="1440" class="field">독립 콘텐츠 테이블: landing_instructor, landing_program (다른 비즈니스 테이블과 FK 없음)</text>
</svg>